<svg width="24" height="26" viewBox="0 0 24 26" fill="none" xmlns="http://www.w3.org/2000/svg">
<path d="M11.8455 6.29052C13.2814 6.29052 14.5411 5.7298 15.6245 4.60832C16.7079 3.48685 17.2496 2.18277 17.2496 0.696088C17.2496 0.532808 17.2367 0.300779 17.2109 0C17.0218 0.0257811 16.8799 0.0472653 16.7853 0.0644526C15.4611 0.253514 14.296 0.902337 13.29 2.0109C12.284 3.11948 11.781 4.30541 11.781 5.56868C11.781 5.71475 11.8025 5.9554 11.8455 6.29052ZM16.9917 26C18.0149 26 19.1456 25.2996 20.3838 23.8989C21.622 22.4981 22.5678 20.8524 23.2213 18.9618C20.7879 17.7072 19.5712 15.9068 19.5712 13.5607C19.5712 11.6014 20.5557 9.92565 22.5248 8.53347C21.1576 6.82333 19.352 5.96826 17.1078 5.96826C16.1619 5.96826 15.2978 6.11006 14.5153 6.39365L14.0252 6.57411L13.3674 6.83193C12.9375 6.99521 12.5462 7.07687 12.1937 7.07687C11.9185 7.07687 11.5574 6.98231 11.1103 6.79325L10.6073 6.58701L10.1301 6.39365C9.43356 6.10146 8.6855 5.95537 7.88585 5.95537C5.74482 5.95537 4.02513 6.67724 2.72674 8.12098C1.42835 9.56469 0.779175 11.4682 0.779175 13.8314C0.779175 17.1572 1.81959 20.2294 3.90043 23.0481C5.34499 25.016 6.66486 26 7.86004 26C8.36737 26 8.87038 25.9012 9.36908 25.7035L10.0011 25.4457L10.5041 25.2652C11.2092 25.016 11.8584 24.8914 12.4516 24.8914C13.0793 24.8914 13.8016 25.0504 14.6185 25.3684L15.0183 25.5231C15.8523 25.841 16.5102 26 16.9917 26Z" fill="white"/>
</svg>
