<svg width="24" height="24" viewBox="0 0 24 24" fill="none" xmlns="http://www.w3.org/2000/svg">
<path fill-rule="evenodd" clip-rule="evenodd" d="M20.1273 3.66216C20.35 2.37513 20.6743 1.56552 21.0363 1.56353C21.7086 1.56552 22.2556 4.37232 22.2556 7.83755C22.2556 11.3028 21.7086 14.1116 21.0363 14.1116C20.7598 14.1116 20.5052 13.6341 20.3003 12.8345C19.9761 15.7607 19.3038 17.7717 18.5241 17.7717C17.9214 17.7717 17.3804 16.5643 17.0164 14.6586C16.7677 18.283 16.1452 20.853 15.4152 20.853C14.9577 20.853 14.54 19.8346 14.2317 18.1756C13.8597 21.599 13.0025 24 12 24C10.9975 24 10.1382 21.601 9.76824 18.1756C9.46196 19.8346 9.04425 20.853 8.58475 20.853C7.85477 20.853 7.23225 18.281 6.98356 14.6586C6.61959 16.5643 6.08055 17.7717 5.47588 17.7717C4.69816 17.7717 4.02387 15.7607 3.69965 12.8345C3.49677 13.6362 3.24017 14.1116 2.9637 14.1116C2.28941 14.1116 1.7444 11.3028 1.7444 7.83755C1.7444 4.37232 2.28941 1.56353 2.9637 1.56353C3.32571 1.56353 3.64793 2.37513 3.8727 3.66216C4.23272 1.44219 4.81551 0 5.47588 0C6.25957 0 6.93784 2.04095 7.26004 5.0029C7.57433 2.84658 8.05172 1.47203 8.58475 1.47203C9.33263 1.47203 9.96916 4.17539 10.2059 7.94696C10.6494 6.01343 11.2919 4.8 12.002 4.8C12.712 4.8 13.3546 6.01343 13.7961 7.94696C14.0328 4.17539 14.6673 1.47203 15.4172 1.47203C15.9502 1.47203 16.4257 2.84658 16.7419 5.0029C17.0621 2.04095 17.7424 0 18.5241 0C19.1825 0 19.7673 1.44418 20.1273 3.66216ZM0 7.22089C0 5.67128 0.310293 4.41608 0.692192 4.41608C1.07409 4.41608 1.38439 5.67128 1.38439 7.22089C1.38439 8.77052 1.07409 10.0257 0.692192 10.0257C0.310293 10.0257 0 8.76847 0 7.22089ZM22.6156 7.22089C22.6156 5.67128 22.9259 4.41608 23.3078 4.41608C23.6897 4.41608 24 5.67128 24 7.22089C24 8.77052 23.6897 10.0257 23.3078 10.0257C22.9259 10.0257 22.6156 8.76847 22.6156 7.22089Z" fill="white"/>
</svg>
