<svg width="33" height="19" viewBox="0 0 33 19" fill="none" xmlns="http://www.w3.org/2000/svg">
<path d="M27.4183 7.79572C27.1417 7.70504 26.8742 7.62144 26.617 7.53976C24.651 6.92174 23.4657 6.54874 23.4657 5.01879C23.4657 3.7776 24.4227 2.8779 25.743 2.8779C26.7539 2.8779 27.5077 3.2972 28.1836 4.24321C28.2466 4.33131 28.3656 4.36282 28.464 4.31073L30.4473 3.29849C30.5013 3.27212 30.5412 3.22324 30.5579 3.16536C30.5753 3.10748 30.5695 3.04575 30.5393 2.99301C29.4768 1.10485 27.9443 0.187144 25.8542 0.187144C22.6741 0.187144 20.6174 2.11132 20.6174 5.08889C20.6174 8.13335 22.6059 9.36554 26.2735 10.5726C28.399 11.2813 29.3386 11.6569 29.3386 13.1689C29.3386 14.8686 27.8061 16.0905 25.7134 16.0191C23.5217 15.9451 22.8574 14.7831 22.022 12.8801C20.6091 9.65687 19.0013 5.89406 18.9859 5.8574C17.3717 2.13382 14.1729 0 10.2081 0C4.97069 0 0.709473 4.26186 0.709473 9.50123C0.709473 14.738 4.97069 18.9999 10.2081 18.9999C13.0648 18.9999 15.7427 17.7336 17.5537 15.5246C17.6064 15.4602 17.6193 15.3741 17.5865 15.2969L16.3884 12.5335C16.3543 12.4569 16.2778 12.4055 16.1935 12.4016C16.1067 12.3978 16.0289 12.4454 15.9903 12.52C14.8597 14.6802 12.6442 16.0217 10.2068 16.0217C6.61253 16.0217 3.68898 13.0975 3.68898 9.50123C3.68898 5.90499 6.61317 2.98079 10.2075 2.98079C12.8243 2.98079 15.2218 4.53389 16.1742 6.851L19.1357 13.6062L19.4772 14.365C20.8161 17.4841 22.7834 18.8816 25.8645 18.8931C29.5283 18.8931 32.2904 16.4654 32.2904 13.2473C32.2904 10.0138 30.5032 8.80218 27.4183 7.79572Z" fill="black"/>
</svg>
