<svg aria-hidden="true" style="position: absolute; width: 0; height: 0; overflow: hidden;" version="1.1" xmlns="http://www.w3.org/2000/svg" xmlns:xlink="http://www.w3.org/1999/xlink">
<defs>
<symbol id="icon-spotify" viewBox="0 0 32 32">
<path fill="#000" style="fill: var(--color1, #000)" d="M16 0c-8.837 0-16 7.163-16 16s7.164 16 16 16c8.837 0 16-7.163 16-16s-7.163-15.999-16.001-15.999l0-0.001zM23.338 23.077c-0.287 0.47-0.902 0.619-1.372 0.331-3.757-2.295-8.486-2.814-14.055-1.542-0.537 0.122-1.072-0.214-1.194-0.751s0.212-1.072 0.75-1.194c6.095-1.392 11.323-0.793 15.541 1.784 0.47 0.288 0.619 0.902 0.331 1.372zM25.296 18.72c-0.361 0.587-1.129 0.772-1.716 0.411-4.301-2.644-10.857-3.409-15.944-1.865-0.66 0.199-1.357-0.173-1.557-0.831-0.199-0.66 0.173-1.355 0.832-1.556 5.811-1.763 13.035-0.909 17.974 2.126 0.587 0.361 0.772 1.129 0.411 1.715v-0zM25.465 14.184c-5.157-3.063-13.665-3.344-18.588-1.85-0.791 0.24-1.627-0.206-1.866-0.997s0.206-1.627 0.997-1.867c5.652-1.716 15.047-1.384 20.985 2.14 0.713 0.422 0.946 1.34 0.523 2.051-0.421 0.711-1.341 0.946-2.050 0.523h-0.001z"></path>
</symbol>
<symbol id="icon-vk_music" viewBox="0 0 30 32">
<path fill="#fff" style="fill: var(--color2, #fff)" d="M0 14.769c0.002-6.554 0.062-9.893 2.076-11.991 2.076-2.163 5.418-2.163 12.102-2.163h1.182c6.684 0 10.026 0 12.102 2.163 1.69 1.76 2.005 4.394 2.063 9.066 0 0 0 0 0 0 0.013 1.069 0.013 2.244 0.013 3.54v1.231c0 6.962 0 10.443-2.076 12.606-1.985 2.067-5.125 2.159-11.234 2.163h-2.918c-6.109-0.004-9.249-0.096-11.234-2.163-2.076-2.163-2.076-5.644-2.076-12.606v-1.231l0-0.615c0 0-0 0-0 0zM14.178 31.385c-0.296 0-0.585 0-0.868-0h2.918c-0.283 0-0.572 0-0.868 0h-1.182zM19.496 11.385c-0.73 0-1.329 0.616-1.329 1.377v12.631c0 0.761 0.599 1.377 1.329 1.377s1.329-0.616 1.329-1.377v-12.631c0-0.76-0.599-1.377-1.329-1.377zM24.222 14.923c-0.73 0-1.329 0.617-1.329 1.377v5.554c0 0.761 0.599 1.377 1.329 1.377s1.329-0.616 1.329-1.377v-5.554c0-0.761-0.599-1.377-1.329-1.377zM13.44 16.3c0-0.761 0.599-1.377 1.329-1.377s1.329 0.617 1.329 1.377v5.554c0 0.761-0.599 1.377-1.329 1.377s-1.329-0.616-1.329-1.377v-5.554zM10.043 16.923c-0.73 0-1.329 0.616-1.329 1.377v1.554c0 0.761 0.599 1.377 1.329 1.377s1.329-0.616 1.329-1.377v-1.554c0-0.76-0.599-1.377-1.329-1.377zM3.987 18.3c0-0.76 0.599-1.377 1.329-1.377s1.329 0.616 1.329 1.377v1.554c0 0.761-0.599 1.377-1.329 1.377s-1.329-0.616-1.329-1.377v-1.554z"></path>
</symbol>
<symbol id="icon-youtube" viewBox="0 0 45 32">
<path d="M43.308 7.268c0 0-0.417-3.011-1.7-4.334-1.625-1.74-3.442-1.749-4.275-1.851-5.967-0.444-14.925-0.444-14.925-0.444h-0.017c0 0-8.958 0-14.925 0.444-0.833 0.102-2.65 0.111-4.275 1.851-1.283 1.322-1.692 4.334-1.692 4.334s-0.433 3.54-0.433 7.072v3.31c0 3.532 0.425 7.072 0.425 7.072s0.417 3.011 1.692 4.334c1.625 1.74 3.758 1.681 4.708 1.868 3.417 0.333 14.508 0.435 14.508 0.435s8.967-0.017 14.933-0.452c0.833-0.102 2.65-0.111 4.275-1.851 1.283-1.322 1.7-4.334 1.7-4.334s0.425-3.532 0.425-7.072v-3.31c0-3.532-0.425-7.072-0.425-7.072zM17.992 21.668v-12.276l11.525 6.159-11.525 6.117z"></path>
</symbol>
<symbol id="icon-yandex-music" viewBox="0 0 32 32">
<path fill="#fff" style="fill: var(--color2, #fff)" d="M32 16c0-8.837-7.164-16-16-16s-16 7.163-16 16 7.163 16 16 16c8.836 0 16-7.163 16-16zM28.055 12.329l0.103 0.485-3.825 0.924 4.057 3.007-0.042 0.505-4.52-1.682 3.237 5.971-0.274 0.443-4.224-4.815 1.113 8.367-0.483 0.379-2.714-8.241-4.456 10.534h-0.694l2.291-11.187-11.606 6.35-0.421-0.567 9.756-8.118-11.69-1.281 0.126-0.695 11.249-0.946-8.158-4.668 0.421-0.463 9.126 3.049-4.606-5.825 0.505-0.148 5.993 4.815-0.567-5.192h0.419l2.377 5.382 2.123-3.616 0.357 0.209-0.441 4.458 3.49-1.682 0.273 0.315-2.374 3.217 4.079 0.714z"></path>
</symbol>
<symbol id="icon-x" viewBox="0 0 35 32">
<path d="M27.038 1.143h5.041l-11.013 12.587 12.955 17.128h-10.144l-7.945-10.388-9.091 10.388h-5.044l11.779-13.463-12.428-16.251h10.402l7.182 9.495 8.306-9.495zM25.269 27.84h2.793l-18.030-23.838h-2.997l18.234 23.838z"></path>
</symbol>
<symbol id="icon-vk" viewBox="0 0 49 32">
<path d="M26.592 30.378c-15.746 0-24.727-10.795-25.102-28.757h7.887c0.259 13.184 6.074 18.768 10.679 19.92v-19.92h7.427v11.37c4.548-0.489 9.326-5.671 10.938-11.37h7.427c-1.238 7.024-6.419 12.205-10.104 14.335 3.684 1.727 9.586 6.247 11.831 14.422h-8.176c-1.756-5.469-6.131-9.701-11.917-10.277v10.277h-0.892z"></path>
</symbol>
<symbol id="icon-threds" viewBox="0 0 29 32">
<path d="M22.134 14.831c-0.138-0.066-0.278-0.13-0.42-0.191-0.247-4.551-2.734-7.157-6.91-7.183-0.019-0-0.038-0-0.057-0-2.498 0-4.575 1.066-5.853 3.006l2.296 1.575c0.955-1.449 2.454-1.758 3.558-1.758 0.013 0 0.026 0 0.038 0 1.375 0.009 2.412 0.409 3.084 1.188 0.489 0.568 0.816 1.352 0.977 2.342-1.219-0.207-2.537-0.271-3.947-0.19-3.97 0.229-6.522 2.544-6.351 5.761 0.087 1.632 0.9 3.036 2.289 3.953 1.175 0.775 2.687 1.154 4.26 1.069 2.076-0.114 3.705-0.906 4.842-2.354 0.863-1.1 1.409-2.526 1.65-4.322 0.989 0.597 1.723 1.383 2.128 2.328 0.689 1.606 0.729 4.245-1.424 6.396-1.886 1.885-4.154 2.7-7.581 2.725-3.802-0.028-6.677-1.247-8.546-3.624-1.75-2.225-2.655-5.439-2.689-9.553 0.034-4.114 0.938-7.328 2.689-9.553 1.869-2.376 4.744-3.595 8.546-3.624 3.829 0.028 6.754 1.253 8.695 3.641 0.952 1.171 1.669 2.643 2.142 4.36l2.691-0.718c-0.573-2.113-1.476-3.934-2.703-5.445-2.488-3.061-6.127-4.63-10.816-4.662h-0.019c-4.679 0.032-8.277 1.607-10.695 4.68-2.151 2.735-3.261 6.539-3.298 11.309l-0 0.011 0 0.011c0.037 4.769 1.147 8.574 3.298 11.309 2.417 3.073 6.016 4.647 10.695 4.68h0.019c4.16-0.029 7.092-1.118 9.508-3.531 3.161-3.158 3.065-7.115 2.024-9.545-0.747-1.742-2.172-3.157-4.121-4.092zM14.951 21.584c-1.74 0.098-3.548-0.683-3.637-2.356-0.066-1.24 0.883-2.624 3.744-2.789 0.328-0.019 0.649-0.028 0.965-0.028 1.039 0 2.011 0.101 2.895 0.294-0.33 4.117-2.263 4.786-3.967 4.879z"></path>
</symbol>
<symbol id="icon-telegram" viewBox="0 0 40 32">
<path d="M3.529 13.832c10.106-4.403 16.845-7.306 20.216-8.708 9.627-4.004 11.627-4.7 12.931-4.723 0.287-0.005 0.928 0.066 1.343 0.403 0.351 0.285 0.447 0.669 0.493 0.939s0.104 0.884 0.058 1.365c-0.522 5.481-2.779 18.784-3.928 24.923-0.486 2.598-1.443 3.469-2.369 3.554-2.013 0.185-3.542-1.33-5.492-2.608-3.051-2-4.775-3.245-7.736-5.197-3.423-2.255-1.204-3.495 0.747-5.521 0.51-0.53 9.38-8.598 9.552-9.33 0.021-0.092 0.041-0.433-0.161-0.613s-0.502-0.119-0.718-0.070c-0.306 0.069-5.18 3.291-14.622 9.665-1.383 0.95-2.637 1.413-3.759 1.389-1.238-0.027-3.619-0.7-5.389-1.275-2.171-0.706-3.896-1.079-3.746-2.277 0.078-0.624 0.938-1.263 2.579-1.915z"></path>
</symbol>
<symbol id="icon-points" viewBox="0 0 7 32">
<path fill="#fff4f4" style="fill: var(--color3, #fff4f4)" d="M7.111 3.556c0 1.964-1.592 3.556-3.556 3.556s-3.556-1.592-3.556-3.556c0-1.964 1.592-3.556 3.556-3.556s3.556 1.592 3.556 3.556z"></path>
<path fill="#fff4f4" style="fill: var(--color3, #fff4f4)" d="M7.111 16c0 1.964-1.592 3.556-3.556 3.556s-3.556-1.592-3.556-3.556c0-1.964 1.592-3.556 3.556-3.556s3.556 1.592 3.556 3.556z"></path>
<path fill="#fff4f4" style="fill: var(--color3, #fff4f4)" d="M7.111 28.444c0 1.964-1.592 3.556-3.556 3.556s-3.556-1.592-3.556-3.556c0-1.964 1.592-3.556 3.556-3.556s3.556 1.592 3.556 3.556z"></path>
</symbol>
<symbol id="icon-link-arrow" viewBox="0 0 37 32">
<path fill="none" stroke="#fff4f4" style="stroke: var(--color3, #fff4f4)" stroke-linejoin="miter" stroke-linecap="round" stroke-miterlimit="4" stroke-width="3.3016" d="M19.937 2.794l13.206 13.206-13.206 13.206"></path>
<path fill="#fff4f4" style="fill: var(--color3, #fff4f4)" d="M3.429 14.349c-0.912 0-1.651 0.739-1.651 1.651s0.739 1.651 1.651 1.651v-3.302zM3.429 17.651h28.064v-3.302h-28.064v3.302z"></path>
</symbol>
<symbol id="icon-lastfm" viewBox="0 0 56 32">
<path d="M46.178 13.13c-0.466-0.153-0.916-0.294-1.35-0.431-3.311-1.041-5.307-1.669-5.307-4.246 0-2.090 1.612-3.606 3.835-3.606 1.703 0 2.972 0.706 4.11 2.299 0.106 0.148 0.307 0.201 0.472 0.114l3.34-1.705c0.091-0.044 0.158-0.127 0.186-0.224 0.029-0.097 0.020-0.201-0.031-0.29-1.789-3.18-4.371-4.726-7.891-4.726-5.356 0-8.82 3.241-8.82 8.256 0 5.128 3.349 7.203 9.526 9.236 3.58 1.194 5.162 1.826 5.162 4.373 0 2.863-2.581 4.921-6.106 4.8-3.691-0.125-4.81-2.082-6.217-5.287-2.38-5.429-5.087-11.766-5.113-11.828-2.719-6.271-8.106-9.865-14.784-9.865-8.821 0-15.998 7.178-15.998 16.002 0 8.82 7.177 15.998 15.998 15.998 4.811 0 9.321-2.133 12.372-5.853 0.089-0.108 0.11-0.253 0.055-0.384l-2.018-4.654c-0.057-0.129-0.186-0.216-0.328-0.222-0.146-0.006-0.277 0.074-0.342 0.199-1.904 3.638-5.636 5.898-9.741 5.898-6.053 0-10.977-4.925-10.977-10.982s4.925-10.982 10.979-10.982c4.407 0 8.445 2.616 10.049 6.518l4.988 11.377 0.575 1.278c2.255 5.253 5.568 7.607 10.758 7.626 6.171 0 10.823-4.089 10.823-9.509 0-5.446-3.010-7.487-8.206-9.182z"></path>
</symbol>
<symbol id="icon-instagram" viewBox="0 0 32 32">
<path d="M0.762 9.176v13.647c0 4.64 3.775 8.414 8.415 8.414h13.647c4.64 0 8.414-3.775 8.414-8.414v-13.647c0-4.64-3.775-8.415-8.414-8.415h-13.647c-4.64 0-8.415 3.775-8.415 8.415zM9.949 16c0 3.336 2.714 6.051 6.051 6.051s6.051-2.715 6.051-6.051-2.715-6.051-6.051-6.051c-3.336 0-6.051 2.714-6.051 6.051zM7.988 16c0-4.418 3.594-8.012 8.012-8.012s8.012 3.594 8.012 8.012c0 4.418-3.594 8.012-8.012 8.012s-8.012-3.594-8.012-8.012zM25.76 3.994c1.161 0 2.103 0.942 2.103 2.103s-0.941 2.103-2.103 2.103-2.103-0.942-2.103-2.103c0-1.161 0.942-2.103 2.103-2.103z"></path>
</symbol>
<symbol id="icon-facebook" viewBox="0 0 17 32">
<path d="M10.881 32v-14.596h4.94l0.741-5.69h-5.681v-3.632c0-1.647 0.459-2.769 2.844-2.769l3.037-0.001v-5.089c-0.525-0.068-2.328-0.223-4.426-0.223-4.381 0-7.381 2.651-7.381 7.519v4.196h-4.955v5.69h4.955v14.596h5.926z"></path>
</symbol>
<symbol id="icon-deezer" viewBox="0 0 32 32">
<path fill="#fff" style="fill: var(--color2, #fff)" d="M26.836 4.883c0.297-1.716 0.729-2.796 1.212-2.798 0.896 0.003 1.626 3.745 1.626 8.365s-0.729 8.365-1.626 8.365c-0.369 0-0.708-0.637-0.981-1.703-0.432 3.902-1.329 6.583-2.368 6.583-0.804 0-1.525-1.61-2.010-4.151-0.332 4.833-1.162 8.259-2.135 8.259-0.61 0-1.167-1.358-1.578-3.57-0.496 4.565-1.639 7.766-2.976 7.766s-2.482-3.199-2.976-7.766c-0.408 2.212-0.965 3.57-1.578 3.57-0.973 0-1.803-3.429-2.135-8.259-0.485 2.541-1.204 4.151-2.010 4.151-1.037 0-1.936-2.681-2.368-6.583-0.271 1.069-0.613 1.703-0.981 1.703-0.899 0-1.626-3.745-1.626-8.365s0.727-8.365 1.626-8.365c0.483 0 0.912 1.082 1.212 2.798 0.48-2.96 1.257-4.883 2.138-4.883 1.045 0 1.949 2.721 2.379 6.671 0.419-2.875 1.056-4.708 1.766-4.708 0.997 0 1.846 3.604 2.162 8.633 0.591-2.578 1.448-4.196 2.395-4.196s1.803 1.618 2.392 4.196c0.316-5.029 1.162-8.633 2.161-8.633 0.711 0 1.345 1.833 1.766 4.708 0.427-3.949 1.334-6.671 2.376-6.671 0.878 0 1.658 1.926 2.138 4.883zM0 9.628c0-2.066 0.414-3.74 0.923-3.74s0.923 1.674 0.923 3.74c0 2.066-0.414 3.74-0.923 3.74s-0.923-1.676-0.923-3.74zM30.154 9.628c0-2.066 0.414-3.74 0.923-3.74s0.923 1.674 0.923 3.74c0 2.066-0.414 3.74-0.923 3.74s-0.923-1.676-0.923-3.74z"></path>
</symbol>
<symbol id="icon-apple" viewBox="0 0 30 32">
<path fill="#fff" style="fill: var(--color2, #fff)" d="M14.579 7.742c1.767 0 3.318-0.69 4.651-2.070s2-2.985 2-4.815c0-0.201-0.016-0.487-0.048-0.857-0.233 0.032-0.407 0.058-0.524 0.079-1.63 0.233-3.064 1.031-4.302 2.396s-1.857 2.824-1.857 4.379c0 0.18 0.026 0.476 0.079 0.888zM20.913 32c1.259 0 2.651-0.862 4.175-2.586s2.688-3.75 3.492-6.076c-2.995-1.544-4.492-3.76-4.492-6.648 0-2.411 1.212-4.474 3.635-6.187-1.683-2.105-3.905-3.157-6.667-3.157-1.164 0-2.228 0.175-3.191 0.524l-0.603 0.222-0.81 0.317c-0.529 0.201-1.011 0.301-1.445 0.301-0.339 0-0.783-0.116-1.333-0.349l-0.619-0.254-0.587-0.238c-0.857-0.36-1.778-0.539-2.762-0.539-2.635 0-4.752 0.888-6.35 2.665s-2.397 4.12-2.397 7.028c0 4.093 1.28 7.874 3.842 11.344 1.778 2.422 3.402 3.633 4.873 3.633 0.624 0 1.244-0.122 1.857-0.365l0.778-0.317 0.619-0.222c0.868-0.307 1.667-0.46 2.397-0.46 0.773 0 1.662 0.196 2.667 0.587l0.492 0.19c1.026 0.391 1.836 0.587 2.429 0.587z"></path>
</symbol>
</defs>
</svg>
