<svg width="19" height="21" viewBox="0 0 19 21" fill="none" xmlns="http://www.w3.org/2000/svg">
<path d="M14.5253 9.73309C14.4348 9.68974 14.343 9.64801 14.2499 9.60806C14.0878 6.62137 12.4558 4.91148 9.71551 4.89398C9.7031 4.89391 9.69075 4.89391 9.67833 4.89391C8.03928 4.89391 6.67611 5.59354 5.83708 6.86664L7.34416 7.90046C7.97095 6.9495 8.95462 6.74677 9.67906 6.74677C9.68742 6.74677 9.69582 6.74678 9.7041 6.74685C10.6064 6.7526 11.2872 7.01494 11.7279 7.52653C12.0486 7.89899 12.2631 8.41367 12.3693 9.06323C11.5693 8.92726 10.7042 8.88546 9.77929 8.93849C7.17394 9.08856 5.49902 10.6081 5.61151 12.7194C5.66859 13.7904 6.20215 14.7118 7.11382 15.3137C7.88463 15.8225 8.87738 16.0713 9.90915 16.015C11.2717 15.9403 12.3406 15.4205 13.0864 14.4699C13.6527 13.748 14.0109 12.8125 14.1691 11.6338C14.8184 12.0257 15.2997 12.5414 15.5654 13.1613C16.0174 14.2151 16.0437 15.9469 14.6307 17.3587C13.3927 18.5955 11.9046 19.1306 9.65553 19.1471C7.16076 19.1286 5.274 18.3285 4.04728 16.769C2.89856 15.3088 2.3049 13.1996 2.28275 10.5C2.3049 7.80038 2.89856 5.69118 4.04728 4.23092C5.274 2.67147 7.16073 1.87141 9.6555 1.85287C12.1684 1.87155 14.088 2.67547 15.3617 4.24244C15.9862 5.01086 16.4571 5.97721 16.7675 7.10394L18.5336 6.63274C18.1573 5.24587 17.5653 4.05078 16.7596 3.05966C15.1267 1.05073 12.7386 0.0213443 9.66166 0H9.64934C6.5786 0.0212702 4.21725 1.05457 2.6309 3.07117C1.21926 4.8657 0.491096 7.36265 0.466629 10.4926L0.466553 10.5L0.466629 10.5074C0.491096 13.6373 1.21926 16.1343 2.6309 17.9289C4.21725 19.9454 6.5786 20.9788 9.64934 21H9.66166C12.3917 20.9811 14.3161 20.2663 15.9013 18.6825C17.9754 16.6103 17.913 14.013 17.2294 12.4185C16.7389 11.2751 15.8039 10.3465 14.5253 9.73309ZM9.81161 14.1648C8.66973 14.2291 7.48344 13.7166 7.42495 12.6188C7.38159 11.8048 8.00422 10.8966 9.88168 10.7884C10.0967 10.776 10.3077 10.7699 10.5149 10.7699C11.1969 10.7699 11.8349 10.8362 12.4149 10.963C12.1986 13.6648 10.9296 14.1035 9.81161 14.1648Z" fill="black"/>
</svg>
