<svg width="24" height="26" viewBox="0 0 24 26" fill="none" xmlns="http://www.w3.org/2000/svg">
<path fill-rule="evenodd" clip-rule="evenodd" d="M0 11.9998C0.00146352 6.67488 0.0504243 3.96215 1.68702 2.25736C3.37408 0.5 6.08938 0.5 11.52 0.5H12.48C17.9106 0.5 20.6258 0.5 22.3129 2.25736C23.686 3.6876 23.9417 5.82728 23.9892 9.62377C23.9892 9.62378 23.9892 9.62379 23.9892 9.6238C24 10.492 24 11.4469 24 12.4998V13.4998C24 19.1566 24 21.9851 22.313 23.7425C20.7006 25.422 18.1491 25.4964 13.1856 25.4997H10.8144C5.85085 25.4964 3.29945 25.422 1.68707 23.7425C2.31941e-06 21.9851 2.34375e-06 19.1566 2.34375e-06 13.4998V12.4998L3.16308e-05 11.9998C2.10872e-05 11.9998 1.05436e-05 11.9998 0 11.9998ZM11.52 25.5C11.2795 25.5 11.0443 25.5 10.8144 25.4998H13.1855C12.9556 25.5 12.7204 25.5 12.48 25.5H11.52ZM15.8403 9.24992C15.2471 9.24992 14.7602 9.75078 14.7602 10.3686V20.6311C14.7602 21.249 15.2471 21.7499 15.8403 21.7499C16.4334 21.7499 16.9203 21.249 16.9203 20.6311V10.3686C16.9203 9.75078 16.4334 9.24992 15.8403 9.24992ZM19.6802 12.1248C19.087 12.1248 18.6002 12.6257 18.6002 13.2436V17.7561C18.6002 18.374 19.087 18.8748 19.6802 18.8748C20.2734 18.8748 20.7601 18.374 20.7601 17.7561V13.2436C20.7601 12.6257 20.2734 12.1248 19.6802 12.1248ZM10.9203 13.2436C10.9203 12.6257 11.4071 12.1248 12.0002 12.1248C12.5934 12.1248 13.0802 12.6257 13.0802 13.2436V17.7561C13.0802 18.374 12.5934 18.8748 12.0002 18.8748C11.4071 18.8748 10.9203 18.374 10.9203 17.7561V13.2436ZM8.15977 13.7498C7.56663 13.7498 7.07977 14.2507 7.07977 14.8685V16.131C7.07977 16.749 7.56663 17.2498 8.15977 17.2498C8.75293 17.2498 9.23977 16.749 9.23977 16.131V14.8685C9.23977 14.2507 8.75293 13.7498 8.15977 13.7498ZM3.23976 14.8685C3.23976 14.2507 3.72662 13.7498 4.31976 13.7498C4.91292 13.7498 5.39976 14.2507 5.39976 14.8685V16.131C5.39976 16.749 4.91292 17.2498 4.31976 17.2498C3.72662 17.2498 3.23976 16.749 3.23976 16.131V14.8685Z" fill="white"/>
</svg>
