<svg width="24" height="24" viewBox="0 0 24 24" fill="none" xmlns="http://www.w3.org/2000/svg">
<path fill-rule="evenodd" clip-rule="evenodd" d="M24.0001 12C24.0001 18.6274 18.6273 24 12 24C5.37241 24 0 18.6274 0 12C0 5.37261 5.37241 0 12 0C18.6273 0 24.0001 5.37261 24.0001 12ZM21.0416 9.24684L21.1192 9.61065L18.2504 10.3035L21.2931 12.559L21.2615 12.9377L17.8717 11.676L20.2993 16.1539L20.0941 16.4862L16.926 12.8748L17.7608 19.1501L17.3987 19.4345L15.3633 13.2535L12.0213 21.1543H11.5005L13.2186 12.764L4.51414 17.5263L4.19838 17.1013L11.5153 11.0129L2.74809 10.0522L2.84237 9.53127L11.279 8.82188L5.16068 5.32126L5.47644 4.97401L12.3206 7.2609L8.8662 2.89215L9.2449 2.78138L13.7394 6.39277L13.3144 2.49861H13.6287L15.4112 6.535L17.0037 3.82312L17.2715 3.98021L16.9407 7.32374L19.5585 6.06207L19.7634 6.29854L17.9826 8.71111L21.0416 9.24684Z" fill="white"/>
</svg>
