<svg width="21" height="15" viewBox="0 0 21 15" fill="none" xmlns="http://www.w3.org/2000/svg">
<path d="M20.3008 3.40694C20.3008 3.40694 20.1055 1.99533 19.5039 1.37551C18.7422 0.559733 17.8906 0.555733 17.5 0.507747C14.7031 0.299805 10.5039 0.299805 10.5039 0.299805H10.4961C10.4961 0.299805 6.29688 0.299805 3.5 0.507747C3.10938 0.555733 2.25781 0.559733 1.49609 1.37551C0.894531 1.99533 0.703125 3.40694 0.703125 3.40694C0.703125 3.40694 0.5 5.06648 0.5 6.72202V8.27359C0.5 9.92913 0.699219 11.5887 0.699219 11.5887C0.699219 11.5887 0.894531 13.0003 1.49219 13.6201C2.25391 14.4359 3.25391 14.4079 3.69922 14.4959C5.30078 14.6518 10.5 14.6998 10.5 14.6998C10.5 14.6998 14.7031 14.6918 17.5 14.4879C17.8906 14.4399 18.7422 14.4359 19.5039 13.6201C20.1055 13.0003 20.3008 11.5887 20.3008 11.5887C20.3008 11.5887 20.5 9.93313 20.5 8.27359V6.72202C20.5 5.06648 20.3008 3.40694 20.3008 3.40694ZM8.43359 10.1571V4.40266L13.8359 7.28986L8.43359 10.1571Z" fill="black"/>
</svg>
