<svg width="1069" height="85" viewBox="0 0 1069 85" fill="none" xmlns="http://www.w3.org/2000/svg">
<path opacity="0.1" d="M0.689363 81V-65.88H48.2214C49.3774 -65.88 51.7574 -65.846 55.3614 -65.778C58.9654 -65.71 62.4334 -65.472 65.7654 -65.064C77.5974 -63.636 87.6274 -59.522 95.8554 -52.722C104.083 -45.922 110.339 -37.286 114.623 -26.814C118.907 -16.342 121.049 -4.884 121.049 7.56C121.049 20.004 118.907 31.462 114.623 41.934C110.339 52.406 104.083 61.042 95.8554 67.842C87.6274 74.642 77.5974 78.756 65.7654 80.184C62.4334 80.592 58.9654 80.83 55.3614 80.898C51.7574 80.966 49.3774 81 48.2214 81H0.689363ZM28.8414 54.888H48.2214C50.0574 54.888 52.5394 54.854 55.6674 54.786C58.7954 54.65 61.6174 54.344 64.1334 53.868C70.5254 52.576 75.7274 49.584 79.7394 44.892C83.8194 40.2 86.8114 34.556 88.7154 27.96C90.6874 21.364 91.6734 14.564 91.6734 7.56C91.6734 0.215994 90.6534 -6.75401 88.6134 -13.35C86.6414 -19.946 83.6154 -25.522 79.5354 -30.078C75.4554 -34.634 70.3214 -37.524 64.1334 -38.748C61.6174 -39.292 58.7954 -39.598 55.6674 -39.666C52.5394 -39.734 50.0574 -39.768 48.2214 -39.768H28.8414V54.888ZM168.165 84.06C156.469 84.06 146.813 81.068 139.197 75.084C131.649 69.1 126.277 61.008 123.081 50.808L150.417 44.28C151.029 48.02 153.001 51.284 156.333 54.072C159.665 56.792 163.201 58.152 166.941 58.152C169.525 58.152 172.279 57.438 175.203 56.01C178.195 54.582 180.337 52.304 181.629 49.176C182.445 47.204 182.921 44.79 183.057 41.934C183.193 39.078 183.261 35.78 183.261 32.04V-65.88H211.413V32.04C211.413 36.732 211.379 40.812 211.311 44.28C211.311 47.748 210.971 51.012 210.291 54.072C209.679 57.064 208.421 60.192 206.517 63.456C202.369 70.664 196.963 75.9 190.299 79.164C183.635 82.428 176.257 84.06 168.165 84.06ZM266.471 81V-65.88H328.487C329.915 -65.88 331.819 -65.812 334.199 -65.676C336.647 -65.608 338.823 -65.404 340.727 -65.064C349.499 -63.704 356.673 -60.814 362.249 -56.394C367.893 -51.974 372.041 -46.398 374.693 -39.666C377.345 -33.002 378.671 -25.556 378.671 -17.328C378.671 -9.10001 377.311 -1.62 374.591 5.112C371.939 11.776 367.791 17.318 362.147 21.738C356.571 26.158 349.431 29.048 340.727 30.408C338.823 30.68 336.647 30.884 334.199 31.02C331.751 31.156 329.847 31.224 328.487 31.224H294.215V81H266.471ZM294.215 5.316H327.263C328.691 5.316 330.255 5.248 331.955 5.112C333.655 4.976 335.219 4.704 336.647 4.296C340.387 3.276 343.277 1.576 345.317 -0.804005C347.357 -3.25201 348.751 -5.93801 349.499 -8.862C350.315 -11.854 350.723 -14.676 350.723 -17.328C350.723 -19.98 350.315 -22.768 349.499 -25.692C348.751 -28.684 347.357 -31.37 345.317 -33.75C343.277 -36.198 340.387 -37.932 336.647 -38.952C335.219 -39.36 333.655 -39.632 331.955 -39.768C330.255 -39.904 328.691 -39.972 327.263 -39.972H294.215V5.316ZM393.031 81V-65.88H420.775V81H393.031ZM445.234 81V-65.88H472.978V55.092H536.218V81H445.234ZM547.441 81V-65.88H575.185V81H547.441ZM658.805 84.06C649.557 84.06 640.751 82.428 632.387 79.164C624.023 75.832 616.611 70.936 610.151 64.476C603.759 58.016 598.693 50.026 594.953 40.506C591.281 30.986 589.445 20.004 589.445 7.56C589.445 -8.692 592.539 -22.496 598.727 -33.852C604.983 -45.276 613.347 -53.98 623.819 -59.964C634.359 -65.948 646.021 -68.94 658.805 -68.94C677.709 -68.94 692.567 -64.554 703.379 -55.782C714.191 -47.01 721.433 -34.6 725.105 -18.552L696.749 -14.472C694.097 -23.04 689.745 -29.874 683.693 -34.974C677.709 -40.142 670.025 -42.76 660.641 -42.828C651.325 -42.964 643.573 -40.958 637.385 -36.81C631.197 -32.662 626.539 -26.78 623.411 -19.164C620.351 -11.548 618.821 -2.64001 618.821 7.56C618.821 17.76 620.351 26.6 623.411 34.08C626.539 41.56 631.197 47.374 637.385 51.522C643.573 55.67 651.325 57.812 660.641 57.948C666.965 58.084 672.677 56.996 677.777 54.684C682.945 52.372 687.297 48.734 690.833 43.77C694.369 38.806 696.885 32.448 698.381 24.696H675.125V3.276H727.961C728.097 4.16 728.199 5.724 728.267 7.968C728.335 10.212 728.369 11.504 728.369 11.844C728.369 25.92 725.513 38.398 719.801 49.278C714.089 60.158 706.031 68.692 695.627 74.88C685.223 81 672.949 84.06 658.805 84.06ZM740.652 81V-65.88H802.668C804.096 -65.88 806 -65.812 808.38 -65.676C810.828 -65.608 813.004 -65.404 814.908 -65.064C823.68 -63.704 830.854 -60.814 836.43 -56.394C842.074 -51.974 846.222 -46.398 848.874 -39.666C851.526 -33.002 852.852 -25.556 852.852 -17.328C852.852 -5.02001 849.792 5.51999 843.672 14.292C837.552 22.996 827.964 28.368 814.908 30.408L802.668 31.224H768.396V81H740.652ZM823.476 81L794.508 21.228L823.068 15.72L854.892 81H823.476ZM768.396 5.316H801.444C802.872 5.316 804.436 5.248 806.136 5.112C807.836 4.976 809.4 4.704 810.828 4.296C814.568 3.276 817.458 1.576 819.498 -0.804005C821.538 -3.25201 822.932 -5.93801 823.68 -8.862C824.496 -11.854 824.904 -14.676 824.904 -17.328C824.904 -19.98 824.496 -22.768 823.68 -25.692C822.932 -28.684 821.538 -31.37 819.498 -33.75C817.458 -36.198 814.568 -37.932 810.828 -38.952C809.4 -39.36 807.836 -39.632 806.136 -39.768C804.436 -39.904 802.872 -39.972 801.444 -39.972H768.396V5.316ZM871.196 81V-65.88H898.94V81H871.196ZM921.359 81V-65.88H946.247L994.799 31.632L1043.35 -65.88H1068.24V81H1042.33V-6.72L999.695 81H989.903L947.267 -6.72V81H921.359Z" fill="black" fill-opacity="0.5"/>
</svg>
