<svg width="375" height="63" viewBox="0 0 375 63" fill="none" xmlns="http://www.w3.org/2000/svg">
<path opacity="0.1" d="M-16.0725 61V-19.64H10.0235C10.6582 -19.64 11.9648 -19.6213 13.9435 -19.584C15.9222 -19.5467 17.8262 -19.416 19.6555 -19.192C26.1515 -18.408 31.6582 -16.1493 36.1755 -12.416C40.6928 -8.68267 44.1275 -3.94134 46.4795 1.808C48.8315 7.55733 50.0075 13.848 50.0075 20.68C50.0075 27.512 48.8315 33.8027 46.4795 39.552C44.1275 45.3013 40.6928 50.0427 36.1755 53.776C31.6582 57.5093 26.1515 59.768 19.6555 60.552C17.8262 60.776 15.9222 60.9067 13.9435 60.944C11.9648 60.9813 10.6582 61 10.0235 61H-16.0725ZM-0.616506 46.664H10.0235C11.0315 46.664 12.3942 46.6453 14.1115 46.608C15.8288 46.5333 17.3782 46.3653 18.7595 46.104C22.2688 45.3947 25.1248 43.752 27.3275 41.176C29.5675 38.6 31.2102 35.5013 32.2555 31.88C33.3382 28.2587 33.8795 24.5253 33.8795 20.68C33.8795 16.648 33.3195 12.8213 32.1995 9.2C31.1168 5.57866 29.4555 2.51733 27.2155 0.0159941C24.9755 -2.48534 22.1568 -4.072 18.7595 -4.744C17.3782 -5.04267 15.8288 -5.21067 14.1115 -5.248C12.3942 -5.28534 11.0315 -5.304 10.0235 -5.304H-0.616506V46.664ZM75.8751 62.68C69.4538 62.68 64.1524 61.0373 59.9711 57.752C55.8271 54.4667 52.8778 50.024 51.1231 44.424L66.1311 40.84C66.4671 42.8933 67.5498 44.6853 69.3791 46.216C71.2085 47.7093 73.1498 48.456 75.2031 48.456C76.6218 48.456 78.1338 48.064 79.7391 47.28C81.3818 46.496 82.5578 45.2453 83.2671 43.528C83.7151 42.4453 83.9764 41.12 84.0511 39.552C84.1258 37.984 84.1631 36.1733 84.1631 34.12V-19.64H99.6191V34.12C99.6191 36.696 99.6005 38.936 99.5631 40.84C99.5631 42.744 99.3765 44.536 99.0031 46.216C98.6671 47.8587 97.9764 49.576 96.9311 51.368C94.6538 55.3253 91.6858 58.2 88.0271 59.992C84.3685 61.784 80.3178 62.68 75.8751 62.68ZM129.847 61V-19.64H163.895C164.679 -19.64 165.724 -19.6027 167.031 -19.528C168.375 -19.4907 169.57 -19.3787 170.615 -19.192C175.431 -18.4453 179.37 -16.8587 182.431 -14.432C185.53 -12.0053 187.807 -8.944 189.263 -5.248C190.719 -1.58934 191.447 2.49866 191.447 7.016C191.447 11.5333 190.7 15.64 189.207 19.336C187.751 22.9947 185.474 26.0373 182.375 28.464C179.314 30.8907 175.394 32.4773 170.615 33.224C169.57 33.3733 168.375 33.4853 167.031 33.56C165.687 33.6347 164.642 33.672 163.895 33.672H145.079V61H129.847ZM145.079 19.448H163.223C164.007 19.448 164.866 19.4107 165.799 19.336C166.732 19.2613 167.591 19.112 168.375 18.888C170.428 18.328 172.015 17.3947 173.135 16.088C174.255 14.744 175.02 13.2693 175.431 11.664C175.879 10.0213 176.103 8.472 176.103 7.016C176.103 5.56 175.879 4.02933 175.431 2.424C175.02 0.781332 174.255 -0.693335 173.135 -2C172.015 -3.344 170.428 -4.296 168.375 -4.856C167.591 -5.08 166.732 -5.22934 165.799 -5.304C164.866 -5.37867 164.007 -5.41601 163.223 -5.41601H145.079V19.448ZM199.331 61V-19.64H214.563V61H199.331ZM227.991 61V-19.64H243.223V46.776H277.943V61H227.991ZM284.105 61V-19.64H299.337V61H284.105ZM345.246 62.68C340.168 62.68 335.334 61.784 330.742 59.992C326.15 58.1627 322.08 55.4747 318.534 51.928C315.024 48.3813 312.243 43.9947 310.19 38.768C308.174 33.5413 307.166 27.512 307.166 20.68C307.166 11.7573 308.864 4.17866 312.262 -2.056C315.696 -8.328 320.288 -13.1067 326.038 -16.392C331.824 -19.6773 338.227 -21.32 345.246 -21.32C355.624 -21.32 363.782 -18.912 369.718 -14.096C375.654 -9.28 379.63 -2.46667 381.646 6.344L366.078 8.584C364.622 3.88 362.232 0.127997 358.91 -2.672C355.624 -5.50934 351.406 -6.94667 346.254 -6.98401C341.139 -7.05867 336.883 -5.95734 333.486 -3.68001C330.088 -1.40267 327.531 1.82666 325.814 6.008C324.134 10.1893 323.294 15.08 323.294 20.68C323.294 26.28 324.134 31.1333 325.814 35.24C327.531 39.3467 330.088 42.5387 333.486 44.816C336.883 47.0933 341.139 48.2693 346.254 48.344C349.726 48.4187 352.862 47.8213 355.662 46.552C358.499 45.2827 360.888 43.2853 362.83 40.56C364.771 37.8347 366.152 34.344 366.974 30.088H354.206V18.328H383.214C383.288 18.8133 383.344 19.672 383.382 20.904C383.419 22.136 383.438 22.8453 383.438 23.032C383.438 30.76 381.87 37.6107 378.734 43.584C375.598 49.5573 371.174 54.2427 365.462 57.64C359.75 61 353.011 62.68 345.246 62.68ZM390.181 61V-19.64H424.229C425.013 -19.64 426.059 -19.6027 427.365 -19.528C428.709 -19.4907 429.904 -19.3787 430.949 -19.192C435.765 -18.4453 439.704 -16.8587 442.765 -14.432C445.864 -12.0053 448.141 -8.944 449.597 -5.248C451.053 -1.58934 451.781 2.49866 451.781 7.016C451.781 13.7733 450.101 19.56 446.741 24.376C443.381 29.1547 438.117 32.104 430.949 33.224L424.229 33.672H405.413V61H390.181ZM435.653 61L419.749 28.184L435.429 25.16L452.901 61H435.653ZM405.413 19.448H423.557C424.341 19.448 425.2 19.4107 426.133 19.336C427.067 19.2613 427.925 19.112 428.709 18.888C430.763 18.328 432.349 17.3947 433.469 16.088C434.589 14.744 435.355 13.2693 435.765 11.664C436.213 10.0213 436.437 8.472 436.437 7.016C436.437 5.56 436.213 4.02933 435.765 2.424C435.355 0.781332 434.589 -0.693335 433.469 -2C432.349 -3.344 430.763 -4.296 428.709 -4.856C427.925 -5.08 427.067 -5.22934 426.133 -5.304C425.2 -5.37867 424.341 -5.41601 423.557 -5.41601H405.413V19.448ZM461.852 61V-19.64H477.084V61H461.852ZM489.393 61V-19.64H503.057L529.713 33.896L556.369 -19.64H570.033V61H555.809V12.84L532.401 61H527.025L503.617 12.84V61H489.393Z" fill="black"/>
</svg>
